<svg viewBox="-2.4 -2.4 28.80 28.80" fill="none" height="200px" width="200px" xmlns="http://www.w3.org/2000/svg" transform="matrix(1, 0, 0, 1, 0, 0)"><g id="SVGRepo_bgCarrier" stroke-width="0"></g><g id="SVGRepo_tracerCarrier" stroke-linecap="round" stroke-linejoin="round" stroke="#CCCCCC" stroke-width="0.144"></g><g id="SVGRepo_iconCarrier"><path fill-rule="evenodd" clip-rule="evenodd" d="M15 10.5A3.502 3.502 0 0 0 18.355 8H21a1 1 0 1 0 0-2h-2.645a3.502 3.502 0 0 0-6.71 0H3a1 1 0 0 0 0 2h8.645A3.502 3.502 0 0 0 15 10.5zM3 16a1 1 0 1 0 0 2h2.145a3.502 3.502 0 0 0 6.71 0H21a1 1 0 1 0 0-2h-9.145a3.502 3.502 0 0 0-6.71 0H3z" fill="#000000" opacity="0.7"></path></g></svg>